<svg xmlns="http://www.w3.org/2000/svg" viewBox="0 0 142 62"><defs><style>.cls-1{fill:none;stroke:#000;stroke-miterlimit:10;stroke-width:2px;}</style></defs><g id="Capa_2" data-name="Capa 2"><g id="Capa_1-2" data-name="Capa 1"><path d="M1,55.66V5.25L15.47,17.84,29.9,5.25,44.32,17.87,29.9,30.46,44.32,43.08,29.9,55.66,15.47,43.08Z"/><path d="M60.67,20q0,3.81-.18,5.4a6.05,6.05,0,0,1-3.68,4.91,10.27,10.27,0,0,1-7.4,0,6.07,6.07,0,0,1-3.77-4.88A51.69,51.69,0,0,1,45.45,20V15.64c0-2.54.06-4.34.18-5.39a6,6,0,0,1,3.68-4.92,9.26,9.26,0,0,1,3.75-.7,9.61,9.61,0,0,1,3.65.66,6.07,6.07,0,0,1,3.77,4.88c.12,1.05.19,2.87.19,5.47Zm-6.58-8.31a7.8,7.8,0,0,0-.2-2.26.77.77,0,0,0-.8-.49.88.88,0,0,0-.79.4A5.69,5.69,0,0,0,52,11.66V23.47a11.58,11.58,0,0,0,.18,2.72.78.78,0,0,0,.83.52.81.81,0,0,0,.86-.6,12.14,12.14,0,0,0,.19-2.83Z"/><path d="M63.12,5.16H68a30.72,30.72,0,0,1,6.45.44A4.94,4.94,0,0,1,77,7a4.64,4.64,0,0,1,1.1,2.23,35.11,35.11,0,0,1,.21,4.82v8.86A20.27,20.27,0,0,1,78,27.5a3.4,3.4,0,0,1-1.11,1.79,4.54,4.54,0,0,1-2,.91,17.9,17.9,0,0,1-3.53.26h-8.3ZM69.7,9.49V26.13c1,0,1.53-.19,1.75-.57a8.32,8.32,0,0,0,.33-3.1V12.63a13.64,13.64,0,0,0-.11-2.21,1.09,1.09,0,0,0-.5-.71A3.28,3.28,0,0,0,69.7,9.49Z"/><path d="M92.18,5.16l3.76,25.3H89.22l-.36-4.55H86.51l-.39,4.55h-6.8l3.35-25.3ZM88.69,21.43q-.5-4.3-1-10.63c-.67,4.84-1.09,8.39-1.26,10.63Z"/><path d="M117.35,5.16v25.3H111.6V13.38l-2.29,17.08h-4.08l-2.41-16.69V30.46H97.06V5.16h8.51q.38,2.28.78,5.38l.93,6.43L108.8,5.16Z"/><path d="M131.37,5.16l3.76,25.3H128.4l-.35-4.55H125.7l-.4,4.55h-6.8l3.36-25.3Zm-3.49,16.27c-.33-2.87-.67-6.41-1-10.63-.67,4.84-1.09,8.39-1.27,10.63Z"/><path d="M57,32l3.25,23.71H54.43l-.31-4.26h-2l-.35,4.26H45.86L48.76,32ZM54,47.2c-.29-2.69-.57-6-.86-10q-.87,6.81-1.1,10Z"/><path d="M68.84,32V55.66H63.15V32Z"/><rect class="cls-1" x="1" y="1" width="140" height="60" rx="4"/></g></g></svg>